<svg width="824" height="368" viewBox="0 0 824 368" fill="none" xmlns="http://www.w3.org/2000/svg">
<path d="M787.294 102.129C787.152 102.337 786.984 102.601 786.79 102.928C786.22 104.056 785.422 106.406 784.41 110.161C783.611 113.58 783.181 119.196 783.181 127.14C783.181 131.225 783.435 137.151 783.947 144.941C784.428 150.297 785.124 156.07 786.031 162.263C787.665 157.154 788.993 152.126 790.014 147.178C791.535 139.802 792.287 133.125 792.287 127.14C792.287 118.984 791.36 112.152 789.564 106.598C788.718 104.307 788.049 103.029 787.603 102.488C787.492 102.354 787.388 102.236 787.294 102.129ZM822.003 263.762H820C817.465 263.762 814.693 263.499 811.692 262.985C808.566 262.45 805.386 261.387 802.157 259.822C798.93 258.258 795.644 256.186 792.301 253.627L792.252 253.588C788.842 250.803 785.56 247.268 782.397 243.01L782.358 242.956L782.322 242.9C781.498 241.622 780.588 240.339 779.593 239.052L779.509 238.942L779.439 238.822C779.045 238.133 778.65 237.445 778.255 236.756C770.624 245.182 762.579 251.709 754.106 256.291C744.929 261.254 735.52 263.762 725.9 263.762C710.492 263.762 698.162 258.583 689.158 248.106L689.154 248.103C678.766 235.946 673.763 217.431 673.763 192.953V72.7852H703.479V192.953C703.479 204.341 704.42 212.625 706.192 217.962C708.223 223.539 710.095 227.251 711.754 229.311C713.447 231.242 715.329 232.614 717.398 233.477C719.675 234.354 722.492 234.826 725.9 234.826C732.644 234.826 740.002 231.787 748.016 225.317C754.144 220.156 759.832 213.682 765.076 205.876C765.013 205.691 764.949 205.506 764.886 205.321L764.859 205.247L764.84 205.171C764.672 204.52 764.505 203.869 764.337 203.219L763.573 200.455C761.819 193.998 760.262 187.478 758.904 180.894L758.896 180.851C757.52 173.341 756.399 166.242 755.537 159.555L755.534 159.527L755.531 159.499C754.844 152.666 754.327 146.49 753.982 140.976V140.973C753.638 135.303 753.464 130.687 753.464 127.14C753.464 110.881 755.789 98.1897 760.651 89.2842L760.653 89.2803C763.617 83.882 767.355 79.7347 771.903 76.9443C776.457 74.1508 781.715 72.7852 787.605 72.7852C794.536 72.7852 800.559 74.9132 805.563 79.2021C807.773 80.8206 809.701 82.7876 811.347 85.0918C812.965 87.3584 814.477 89.951 815.889 92.8594L815.899 92.8809L815.909 92.9033C820.01 101.894 822.003 113.34 822.003 127.14C822.003 133.241 821.392 139.741 820.181 146.634C819.136 153.557 817.483 160.637 815.228 167.872C813.148 175.09 810.553 182.303 807.441 189.51C804.622 196.419 801.404 203.024 797.789 209.325C798.892 212.129 800.203 215.008 801.727 217.962C803.391 221.189 805.212 224.076 807.187 226.629C809.136 229.15 811.22 231.161 813.428 232.689C815.515 234.135 817.692 234.826 820 234.826H822.003V263.762Z" fill="white" stroke="white" stroke-width="4.00651"/>
<path d="M308.502 166.466C308.502 132.171 327.022 100.619 356.173 83.4707C370.92 74.8967 386.696 70.7812 404.187 70.7812C438.826 70.7812 470.035 88.958 487.183 118.452C495.757 133.2 499.872 149.319 499.872 166.466C499.872 201.105 481.352 231.971 452.201 249.119C437.454 257.693 421.678 262.152 404.187 262.152C369.548 262.152 338.682 243.632 321.534 214.48C312.96 199.733 308.502 183.957 308.502 166.466ZM347.599 166.466C347.599 197.676 372.978 223.055 404.187 223.055C435.396 223.055 460.775 197.676 460.775 166.466C460.775 135.6 435.396 110.221 404.187 110.221C372.978 110.221 347.599 135.6 347.599 166.466Z" fill="white"/>
<path d="M308.653 219.836C308.195 220.522 306.481 223.151 303.508 227.724C300.765 232.297 296.421 237.212 290.476 242.471C274.243 257.332 255.037 264.763 232.859 264.763C220.284 264.763 208.966 260.991 198.906 253.446C194.791 250.016 190.904 246.129 187.246 241.785C183.816 237.212 180.73 231.954 177.986 226.009C175.242 219.836 172.956 213.548 171.127 207.146C169.298 200.516 167.811 194 166.668 187.598C165.754 180.967 165.068 174.565 164.611 168.392C164.382 162.219 164.268 156.617 164.268 151.587C164.268 134.439 165.754 117.406 168.726 100.487C171.927 83.5673 176.385 68.1342 182.101 54.1873C188.275 38.8685 195.705 26.6364 204.394 17.4908C211.253 10.1744 217.998 5.48731 224.628 3.42957C231.259 1.14319 236.86 0 241.433 0C252.636 0 262.01 3.20094 269.556 9.60281C277.101 15.7761 282.131 24.4643 284.646 35.6676C287.161 47.3281 286.818 60.8178 283.617 76.1366C280.416 91.4553 274.7 107.003 266.469 122.779C262.353 130.324 257.781 137.64 252.751 144.728C247.949 151.587 242.805 157.989 237.318 163.934C231.83 169.878 226.114 175.137 220.17 179.71C214.454 184.283 208.623 188.169 202.679 191.37C203.365 195.257 204.279 198.915 205.423 202.345C206.566 205.546 207.823 208.518 209.195 211.262C213.082 219.721 217.197 225.094 221.541 227.381C225.886 229.439 229.658 230.467 232.859 230.467C240.633 230.467 247.263 229.21 252.751 226.695C258.467 223.951 263.154 220.979 266.812 217.778C270.699 214.348 273.557 211.262 275.386 208.518C277.215 205.774 278.244 204.288 278.472 204.06L308.653 219.836ZM198.563 153.302C205.651 147.815 212.282 141.184 218.455 133.41C224.857 125.408 230.687 116.491 235.946 106.66C242.348 94.7706 246.92 83.1101 249.664 71.6781C252.408 60.0176 252.979 50.5291 251.379 43.2127C250.236 39.0972 248.864 36.5821 247.263 35.6676C245.663 34.753 243.719 34.2958 241.433 34.2958C236.86 34.2958 232.059 37.2681 227.029 43.2127C222.227 48.9286 217.769 56.9309 213.653 67.2197C208.852 78.8802 205.08 92.1412 202.336 107.003C199.821 121.864 198.563 136.726 198.563 151.587V153.302Z" fill="white"/>
<path d="M657.219 219.836C656.762 220.522 655.047 223.151 652.075 227.724C649.331 232.297 644.987 237.212 639.042 242.471C622.809 257.332 603.603 264.763 581.426 264.763C568.85 264.763 557.533 260.991 547.473 253.446C543.357 250.016 539.47 246.129 535.812 241.785C532.383 237.212 529.296 231.954 526.552 226.009C523.809 219.836 521.522 213.548 519.693 207.146C517.864 200.516 516.378 194 515.235 187.598C514.32 180.967 513.634 174.565 513.177 168.392C512.948 162.219 512.834 156.617 512.834 151.587C512.834 134.439 514.32 117.406 517.292 100.487C520.493 83.5673 524.952 68.1342 530.668 54.1873C536.841 38.8685 544.272 26.6364 552.96 17.4908C559.819 10.1744 566.564 5.48731 573.195 3.42957C579.825 1.14319 585.427 0 589.999 0C601.203 0 610.577 3.20094 618.122 9.60281C625.667 15.7761 630.697 24.4643 633.212 35.6676C635.727 47.3281 635.384 60.8178 632.183 76.1366C628.982 91.4553 623.266 107.003 615.035 122.779C610.92 130.324 606.347 137.64 601.317 144.728C596.516 151.587 591.371 157.989 585.884 163.934C580.397 169.878 574.681 175.137 568.736 179.71C563.02 184.283 557.19 188.169 551.245 191.37C551.931 195.257 552.846 198.915 553.989 202.345C555.132 205.546 556.39 208.518 557.761 211.262C561.648 219.721 565.764 225.094 570.108 227.381C574.452 229.439 578.225 230.467 581.426 230.467C589.199 230.467 595.83 229.21 601.317 226.695C607.033 223.951 611.72 220.979 615.378 217.778C619.265 214.348 622.123 211.262 623.952 208.518C625.781 205.774 626.81 204.288 627.039 204.06L657.219 219.836ZM547.13 153.302C554.218 147.815 560.848 141.184 567.021 133.41C573.423 125.408 579.253 116.491 584.512 106.66C590.914 94.7706 595.487 83.1101 598.23 71.6781C600.974 60.0176 601.546 50.5291 599.945 43.2127C598.802 39.0972 597.43 36.5821 595.83 35.6676C594.229 34.753 592.286 34.2958 589.999 34.2958C585.427 34.2958 580.625 37.2681 575.595 43.2127C570.794 48.9286 566.335 56.9309 562.22 67.2197C557.418 78.8802 553.646 92.1412 550.902 107.003C548.387 121.864 547.13 136.726 547.13 151.587V153.302Z" fill="white"/>
<path d="M88.1491 0H151.939V34.2958H88.1491C71.6872 34.2958 58.8834 38.7542 49.7379 47.6711C40.821 56.3594 36.3625 68.8202 36.3625 85.0535C36.3625 88.9404 36.9341 93.1702 38.0773 97.7429C54.3107 85.6251 73.9736 79.5662 97.066 79.5662C103.697 79.5662 110.098 80.5951 116.272 82.6528C122.674 84.7105 128.275 87.6828 133.077 91.5697C137.878 95.4565 141.651 100.258 144.394 105.974C147.366 111.461 148.853 117.863 148.853 125.18C148.853 132.725 147.252 139.469 144.051 145.414C141.079 151.13 136.963 156.046 131.705 160.161C126.675 164.048 120.844 167.135 114.214 169.421C107.812 171.479 101.182 172.508 94.3224 172.508C83.1191 172.508 72.716 171.022 63.1132 168.049C53.5104 164.848 44.8222 160.39 37.0485 154.674C35.9053 157.646 35.105 160.618 34.6478 163.591C34.4191 166.563 34.3048 169.65 34.3048 172.851V257.218H0.00902511V173.194C-0.219612 156.503 3.89588 140.841 12.3555 126.208C9.15456 120.035 6.63954 113.519 4.81043 106.66C2.98133 99.8007 2.06677 92.5986 2.06677 85.0535C2.06677 72.2497 4.12452 60.5892 8.24001 50.0718C12.5841 39.5545 18.5287 30.6376 26.0738 23.3211C33.6189 15.7761 42.6501 10.0601 53.1675 6.17324C63.6848 2.05775 75.3454 0 88.1491 0ZM97.066 113.862C81.0613 113.862 67.5717 118.092 56.597 126.551C66.8858 134.325 79.4609 138.212 94.3224 138.212C101.182 138.212 106.212 136.84 109.413 134.096C112.842 131.353 114.557 128.38 114.557 125.18C114.557 121.75 112.956 119.006 109.755 116.949C106.555 114.891 102.325 113.862 97.066 113.862Z" fill="white"/>
<path d="M140.076 350V315.59H151.546C157.775 315.59 163.386 318.92 166.47 324.162C168.011 326.813 168.751 329.65 168.751 332.795C168.751 339.023 165.421 344.573 160.18 347.657C157.528 349.198 154.691 350 151.546 350H140.076ZM147.106 342.97H151.546C157.158 342.97 161.721 338.407 161.721 332.795C161.721 327.183 157.158 322.62 151.546 322.62H147.106V342.97ZM183.311 350V315.59H190.341V350H183.311ZM206.221 345.992L210.353 340.318C212.819 342.045 216.273 342.97 219.479 342.97C221.453 342.97 223.118 342.662 224.536 341.983C225.523 341.49 226.016 340.935 226.016 340.257C226.016 338.283 225.584 337.543 223.796 336.988C222.871 336.742 221.391 336.495 219.294 336.31C215.594 335.878 213.374 335.57 210.784 334.09C209.489 333.35 208.441 332.302 207.639 331.007C206.714 329.527 206.283 327.615 206.283 325.272C206.283 322.003 208.194 319.105 211.463 317.44C213.806 316.207 216.581 315.59 219.849 315.59C224.598 315.59 229.531 317.008 233.046 319.537L228.976 325.272C226.509 323.545 223.056 322.62 219.849 322.62C217.691 322.62 216.026 322.99 214.731 323.668C213.806 324.1 213.313 324.655 213.313 325.333C213.313 326.382 213.498 327.122 213.806 327.553C214.546 328.478 216.026 328.848 220.034 329.28C224.783 329.773 228.236 330.39 231.011 333.473C232.368 335.015 233.046 337.297 233.046 340.257C233.046 343.525 231.134 346.547 227.743 348.212C225.461 349.383 222.748 350 219.479 350C214.731 350 209.736 348.52 206.221 345.992ZM248.839 315.59H273.999V322.62H255.869V329.28H264.934V336.31H255.869V342.97H273.999V350H248.839V315.59ZM289.246 315.59H295.906L310.829 337.235V315.59H317.859V350H311.014L296.276 328.478V350H289.246V315.59ZM290.418 305.908L296.153 301.9C296.338 302.208 298.064 304.12 300.223 304.243C300.778 303.997 301.394 303.688 301.703 303.503C303.984 302.332 305.341 301.777 307.129 301.777C310.521 301.777 313.666 303.257 316.688 306.278L311.446 310.965C310.644 310.04 308.794 308.807 307.129 308.807C306.821 308.868 306.081 309.177 304.848 309.793C302.689 310.842 301.826 311.273 300.408 311.273C298.188 311.273 296.214 310.718 294.426 309.547C292.638 308.437 291.343 307.203 290.418 305.908ZM332.283 332.733C332.283 326.567 335.613 320.893 340.854 317.81C343.506 316.268 346.343 315.528 349.488 315.528C355.716 315.528 361.328 318.797 364.411 324.1C365.953 326.752 366.693 329.65 366.693 332.733C366.693 338.962 363.363 344.512 358.121 347.595C355.469 349.137 352.633 349.938 349.488 349.938C343.259 349.938 337.709 346.608 334.626 341.367C333.084 338.715 332.283 335.878 332.283 332.733ZM339.313 332.733C339.313 338.345 343.876 342.908 349.488 342.908C355.099 342.908 359.663 338.345 359.663 332.733C359.663 327.183 355.099 322.62 349.488 322.62C343.876 322.62 339.313 327.183 339.313 332.733ZM412.373 341.367C410.832 338.715 410.03 335.878 410.03 332.733C410.03 326.505 413.422 320.893 418.663 317.748C421.315 316.207 424.152 315.405 427.297 315.405C432.723 315.405 437.965 317.995 441.172 322.373L435.498 326.628C433.587 323.977 430.565 322.497 427.297 322.497C421.685 322.497 417.122 327.183 417.122 332.733C417.122 338.345 421.685 342.908 427.297 342.908C429.948 342.908 432.23 342.045 434.203 340.318V338.222H427.852V331.13H441.233V349.938H434.203V348.582C431.983 349.507 429.702 350 427.297 350C421.068 350 415.518 346.608 412.373 341.367ZM456.963 315.59H472.194C478.546 315.59 483.726 320.77 483.726 327.122C483.726 331.068 481.691 334.707 478.484 336.742L484.034 350H476.388L471.639 338.653H463.993V350H456.963V315.59ZM463.993 322.62V331.562H472.194C474.661 331.562 476.696 329.588 476.696 327.122C476.696 324.655 474.661 322.62 472.194 322.62H463.993ZM497.167 350L508.637 315.59H517.641L529.111 350H521.711L518.812 341.367H507.466L504.567 350H497.167ZM502.841 305.292L521.341 300.235L523.191 307.018L504.691 312.075L502.841 305.292ZM509.809 334.337H516.469L513.139 324.347L509.809 334.337ZM543.379 315.59H568.6V322.62H550.47V329.28H559.535V336.31H550.47V350H543.379V315.59ZM583.06 350V315.59H590.09V350H583.06ZM603.935 332.857C603.935 326.628 607.327 321.017 612.63 317.872C615.282 316.33 618.119 315.528 621.264 315.528C626.69 315.528 631.87 318.118 635.139 322.497L629.465 326.752C627.492 324.1 624.532 322.62 621.264 322.62C615.714 322.62 611.027 327.307 611.027 332.857C611.027 338.468 615.714 343.032 621.264 343.032C624.47 343.032 627.492 341.49 629.404 338.962L635.077 343.217C631.87 347.595 626.69 350.123 621.264 350.123C615.035 350.123 609.424 346.732 606.279 341.49C604.737 338.838 603.935 336.002 603.935 332.857ZM646.939 332.733C646.939 326.567 650.269 320.893 655.511 317.81C658.163 316.268 660.999 315.528 664.144 315.528C670.373 315.528 675.984 318.797 679.068 324.1C680.609 326.752 681.349 329.65 681.349 332.733C681.349 338.962 678.019 344.512 672.778 347.595C670.126 349.137 667.289 349.938 664.144 349.938C657.916 349.938 652.366 346.608 649.283 341.367C647.741 338.715 646.939 335.878 646.939 332.733ZM653.969 332.733C653.969 338.345 658.533 342.908 664.144 342.908C669.756 342.908 674.319 338.345 674.319 332.733C674.319 327.183 669.756 322.62 664.144 322.62C658.533 322.62 653.969 327.183 653.969 332.733Z" fill="white"/>
</svg>
