<svg width="500" height="297" viewBox="0 0 500 297" fill="none" xmlns="http://www.w3.org/2000/svg">
<path d="M470.259 232.829C475.749 232.829 480.235 229.401 480.235 223.221V124.06C480.235 117.88 475.773 114.451 470.259 114.451V113.589H500V114.451C494.51 114.451 490.024 117.88 490.024 124.06V223.221C490.024 229.401 494.486 232.829 500 232.829V233.692H470.259V232.829Z" fill="#111111"/>
<path d="M332.237 9.45546C332.237 11.8135 329.879 13.8213 325.164 15.4556C320.449 17.0899 314.683 17.907 307.867 17.907C301.051 17.907 292.508 16.9732 282.33 15.0821C276.961 17.8837 272.059 22.0161 267.601 27.5026C263.142 32.9891 258.357 40.7402 253.268 50.7794C248.156 60.8185 244.422 67.5191 242.041 70.8577C239.66 74.1963 236.392 77.4415 232.26 80.5933C221.289 88.718 209.921 92.7804 198.133 92.7804C191.854 92.7804 186.695 91.4496 182.703 88.7881C178.712 86.1265 176.704 82.6712 176.704 78.4454C176.704 76.2975 177.335 74.4764 178.595 72.9356C179.856 71.418 181.373 70.6476 183.124 70.6476C185.971 70.6476 187.372 72.1418 187.372 75.1068C187.372 76.5076 186.928 77.6983 186.065 78.7022C185.201 79.7061 184.127 80.2198 182.867 80.2198C180.813 80.2198 179.786 79.2159 179.786 77.208C179.786 76.1574 179.622 75.6438 179.272 75.6438C178.525 75.6438 178.152 76.7177 178.152 78.8423C178.152 82.391 179.972 85.3794 183.614 87.8075C187.255 90.2589 191.737 91.473 197.083 91.473C208.777 91.473 219.281 86.1966 228.572 75.6204C232.937 70.6942 238.563 62.5462 245.472 51.1996C256.747 32.779 268.511 20.662 280.766 14.8486C278.409 14.4517 274.861 13.7279 270.145 12.6773C259.057 10.2726 250.561 9.08192 244.678 9.08192C244.071 9.08192 242.227 9.17531 239.169 9.33874C241.224 13.191 242.251 17.5802 242.251 22.5064C242.251 32.1019 238.609 41.1372 231.303 49.5654C224.02 57.9936 216.224 62.196 207.914 62.196C204.459 62.196 201.658 61.052 199.487 58.764C197.316 56.476 196.242 53.511 196.242 49.8922C196.242 44.9193 198.133 39.4095 201.914 33.3627C205.696 27.3158 210.575 22.0394 216.574 17.5101C222.573 12.9808 229.155 9.82902 236.322 8.05466C232.867 3.38529 227.965 1.0506 221.592 1.0506C216.224 1.0506 210.808 2.61485 205.323 5.74332C199.837 8.8718 195.028 13.1209 190.897 18.5141C190.29 19.3545 189.87 19.7514 189.66 19.7514C189.403 19.7514 189.216 19.6114 189.146 19.3545C189.146 18.6074 190.943 16.4362 194.515 12.8641C203.105 4.29583 212.092 0 221.476 0C228.759 0 234.314 2.5448 238.096 7.65776C243.371 6.14022 249.44 5.36977 256.303 5.36977C259.851 5.36977 263.072 5.5799 265.99 6.02349C269.095 6.51378 276.681 7.98462 288.773 10.4827C298.857 6.07018 308.544 3.87557 317.858 3.87557C327.172 3.87557 332.19 5.74332 332.19 9.50217L332.237 9.45546ZM239.706 19.2845C239.706 15.7825 238.889 12.5606 237.279 9.59556C227.498 11.2065 218.394 16.2494 209.968 24.7243C201.541 33.1992 197.339 41.5341 197.339 49.7522C197.339 52.904 198.32 55.5422 200.257 57.6667C202.195 59.8146 204.599 60.8652 207.423 60.8652C214.8 60.8652 222.036 56.3126 229.109 47.2073C236.182 38.102 239.73 28.7867 239.73 19.2612L239.706 19.2845ZM331.186 9.57221C331.186 8.31148 329.949 7.23751 327.475 6.37368C325.001 5.50985 321.896 5.06626 318.138 5.06626C308.801 5.06626 299.744 7.02739 290.967 10.973C292.064 11.1364 294.959 11.6734 299.674 12.5373C306.653 13.8914 312.862 14.5684 318.278 14.5684C321.826 14.5684 324.837 14.0782 327.382 13.0976C329.903 12.117 331.186 10.9497 331.186 9.59556V9.57221Z" fill="#111111"/>
<path d="M299.254 69.1486C299.254 69.4988 299.044 69.8956 298.6 70.3392L295.776 74.2148C287.559 85.6314 281.443 91.3281 277.428 91.3281C275.327 91.3281 273.623 90.581 272.293 89.0634C270.962 87.5459 270.285 85.6781 270.285 83.3901C270.285 80.3317 271.943 76.3394 275.257 71.4132C280.463 63.7788 283.054 59.2261 283.054 57.7786C283.054 56.0743 282.167 55.2338 280.369 55.2338C277.755 55.2338 274.16 57.802 269.632 62.9616C265.267 67.8878 259.268 77.2499 251.611 91.0012C250.304 90.7444 249.184 90.6043 248.273 90.6043C247.363 90.6043 246.032 90.7444 244.398 91.0012L254.016 73.5844C255.323 71.0863 257.33 67.4209 260.038 62.5881C261.485 60.2301 265.92 52.7124 273.343 40.0584L283.287 23.1553C284.594 23.4121 285.715 23.5521 286.625 23.5521C288.376 23.5521 290.033 23.342 291.597 22.8984C287.045 30.1827 280.299 41.109 271.289 55.6541C271.032 56.0977 267.648 61.7242 261.135 72.5572C269.352 60.3701 275.818 54.2766 280.58 54.2766C282.447 54.2766 284.058 55.0938 285.388 56.7047C286.719 58.3156 287.396 60.2768 287.396 62.6114C287.396 65.6232 285.482 69.9657 281.63 75.639C277.358 81.966 275.211 85.9349 275.211 87.5692C275.211 89.437 276.144 90.3942 278.035 90.3942C281.443 90.3942 287.092 84.8843 294.959 73.8646L296.989 71.0397L298.18 69.5922C298.39 69.1486 298.67 68.9384 298.974 68.9384C299.137 68.9384 299.23 69.0318 299.23 69.1952L299.254 69.1486Z" fill="#111111"/>
<path d="M332.402 69.3342C332.402 69.4743 332.005 70.0346 331.211 71.0385L328.387 74.5638C319.33 85.7236 311.58 91.3035 305.114 91.3035C302.056 91.3035 299.488 90.2062 297.411 87.9883C295.333 85.7937 294.306 83.0154 294.306 79.7001C294.306 71.8323 299.792 64.9216 310.74 58.9448C316.505 55.793 321.197 54.2288 324.815 54.2288C326.379 54.2288 327.733 54.6957 328.854 55.6295C329.974 56.5634 330.534 57.7074 330.534 59.0615C330.534 62.2134 328.48 64.8749 324.372 67.0929C320.264 69.2875 313.401 71.3653 303.807 73.2798C300.842 77.7857 299.348 81.5446 299.348 84.5563C299.348 88.3151 301.379 90.1829 305.441 90.1829C312.35 90.1829 320.8 83.4356 330.814 69.9645C331.328 69.2641 331.771 68.9139 332.122 68.9139C332.285 68.9606 332.378 69.0773 332.378 69.3108L332.402 69.3342ZM326.869 57.1938C326.869 55.793 326.099 55.0926 324.582 55.0926C322.271 55.0926 319.213 56.7035 315.455 59.902C311.697 63.1005 307.985 67.2796 304.344 72.3692C310.623 70.7583 315.968 68.4703 320.334 65.5286C324.699 62.5869 326.893 59.8086 326.893 57.1705L326.869 57.1938Z" fill="#111111"/>
<path d="M0 173.836C0 137.763 29.1841 111.824 64.877 111.824C77.5678 111.824 89.582 113.552 95.0876 113.552C97.6537 113.552 101.62 113.552 101.946 111.824H102.809L107.452 133.631H106.425C96.9772 118.525 79.4807 114.042 64.7137 114.042C32.4502 114.042 9.96133 137.226 9.96133 169.003C9.96133 205.939 35.5295 232.719 68.6562 232.719C84.0998 232.719 98.5169 227.909 110.018 217.426L110.881 218.617C97.8404 230.291 83.9365 235.45 64.7137 235.45C26.618 235.45 0.0233286 207.97 0.0233286 173.789L0 173.836Z" fill="#111111"/>
<path d="M245.574 232.829V233.692H216.197V232.829C220.143 232.829 225.468 231.64 222.899 225.461L206.576 186.359H153.146L138.551 221.521C136.146 227.35 139.065 232.829 145.09 232.829V233.692H121.037V232.829C128.09 232.829 134.091 225.974 136.333 220.471L178.6 119.091C177.059 116.34 174.654 114.451 169.143 114.451V113.589H187.007L232.357 223.013C234.925 229.192 240.6 232.782 245.597 232.782L245.574 232.829ZM205.548 183.958L179.791 122.216L154.197 183.958H205.572H205.548Z" fill="#111111"/>
<path d="M349.741 213.642L345.608 233.727L345.094 235.453H344.23C343.88 233.727 339.583 233.727 337.365 233.727H258.342V232.864C263.83 232.864 268.313 229.435 268.313 223.253V124.063C268.313 117.881 263.853 114.452 258.342 114.452V113.589H288.069V114.452C282.581 114.452 278.098 117.881 278.098 124.063V223.253C278.098 229.435 280.853 231.324 288.069 231.324H332.391C340.471 231.324 346.308 219.824 348.714 213.642H349.741Z" fill="#111111"/>
<path d="M455.752 213.642L451.619 233.727L451.105 235.453H450.241C449.891 233.727 445.594 233.727 443.376 233.727H364.353V232.864C369.841 232.864 374.324 229.435 374.324 223.253V124.063C374.324 117.881 369.864 114.452 364.353 114.452V113.589H394.08V114.452C388.592 114.452 384.109 117.881 384.109 124.063V223.253C384.109 229.435 386.864 231.324 394.08 231.324H438.402C446.481 231.324 452.319 219.824 454.725 213.642H455.752Z" fill="#111111"/>
<path d="M23.017 296.428C21.6631 293.346 20.2859 290.264 18.8854 287.182C17.4848 284.1 16.1309 280.995 14.8004 277.844C14.3569 276.863 13.9367 275.859 13.5165 274.855C13.0964 273.851 12.6995 272.847 12.3027 271.82C11.9059 270.793 11.5091 269.789 11.1122 268.762C11.1122 269.112 11.1122 269.439 11.1122 269.789C11.1122 270.139 11.1122 270.466 11.1122 270.816C11.0889 271.937 11.0422 273.268 10.9955 274.832C10.9488 276.396 10.9021 278.054 10.8321 279.851C10.7621 281.626 10.7154 283.4 10.6921 285.174C10.6687 286.949 10.622 288.63 10.5987 290.217C10.5753 290.894 10.552 291.571 10.5287 292.249C10.5053 292.926 10.482 293.556 10.4119 294.14C10.9955 294.116 11.5791 294.07 12.1393 294.046C12.6995 294.023 13.2831 293.976 13.8667 293.953V295.984H5.01978V294.443C5.97683 294.42 6.67711 294.21 7.12062 293.813C7.56413 293.416 7.84424 292.902 7.9843 292.249C8.12436 291.595 8.19439 290.894 8.21773 290.171L9.10475 269.018C9.12809 268.411 9.15144 267.781 9.17478 267.174C9.17478 266.567 9.22147 265.96 9.24481 265.376C8.68458 265.4 8.12436 265.423 7.58747 265.446C7.02725 265.446 6.46702 265.493 5.93014 265.516V263.532H13.0263L21.0095 281.929C21.4064 282.863 21.8032 283.774 22.2 284.707C22.5968 285.641 22.9937 286.552 23.4138 287.486C23.834 288.42 24.2308 289.354 24.651 290.311H24.7444C25.0945 289.47 25.4913 288.49 25.9582 287.322C26.425 286.155 26.7985 285.174 27.1253 284.334C28.4792 280.925 29.9031 277.517 31.3737 274.108C32.8443 270.699 34.2915 267.151 35.7155 263.509H42.5782V265.049C41.8079 265.026 41.1777 265.166 40.6875 265.493C40.1973 265.82 39.8471 266.357 39.6137 267.081C39.4036 267.828 39.3336 268.832 39.3803 270.092L40.5941 291.198C40.6641 291.735 40.6875 292.225 40.6875 292.739V294.093C41.2477 294.07 41.8079 294.046 42.3681 294.023C42.9517 294.023 43.5119 293.976 44.0488 293.953V295.984H33.6613V294.443C34.6183 294.42 35.3186 294.186 35.7855 293.743C36.2523 293.299 36.5324 292.692 36.6492 291.898C36.7425 291.105 36.7659 290.101 36.7192 288.933L35.7855 273.641L35.6921 272.147C35.6688 271.657 35.6221 271.166 35.5987 270.653C35.5754 270.162 35.5287 269.672 35.5054 269.158C35.412 269.369 35.3186 269.602 35.2019 269.859C35.1085 270.116 34.9918 270.373 34.8985 270.653L24.4643 296.428H23.0637H23.017Z" fill="#111111"/>
<path d="M71.1734 283.96C71.1734 282.606 70.9867 281.626 70.6132 281.042C70.2397 280.458 69.6561 280.108 68.8625 279.968C68.0455 279.851 66.9951 279.805 65.6645 279.875L62.2798 280.015V290.638C62.2798 291.478 62.2798 292.178 62.2798 292.762C62.2798 293.346 62.2331 293.836 62.1631 294.256L71.01 294.116C72.3639 294.093 73.5544 293.859 74.5348 293.439C75.5151 293.019 76.3088 292.295 76.8457 291.245C77.3826 290.194 77.686 288.746 77.686 286.925H79.25L78.9699 295.961H55.0436V294.42C56.2107 294.35 57.0277 294.093 57.4479 293.603C57.8681 293.112 58.1248 292.459 58.1715 291.618C58.2182 290.778 58.2415 289.797 58.2415 288.723V268.692C58.2415 268.085 58.2415 267.477 58.2882 266.917C58.3349 266.357 58.3582 265.82 58.3816 265.353C57.8214 265.376 57.2611 265.423 56.7243 265.446C56.164 265.47 55.6038 265.516 55.0669 265.54V263.509H77.3592L77.5927 271.633H76.0754C76.0754 269.812 75.7953 268.435 75.235 267.478C74.6748 266.544 73.9278 265.913 72.9941 265.586C72.0604 265.26 70.9867 265.119 69.8195 265.143L65.8279 265.236C64.6841 265.26 63.8671 265.493 63.3769 265.89C62.8867 266.287 62.5833 266.894 62.4666 267.664C62.3732 268.458 62.3032 269.485 62.3032 270.746V278.17L71.01 278.217L70.6832 274.225H72.7374V283.96H71.1967H71.1734Z" fill="#111111"/>
<path d="M88.8426 295.959V294.418C90.3365 294.115 91.4803 293.484 92.344 292.55C93.1843 291.617 94.1414 290.379 95.1918 288.862L101.214 280.247C99.09 277.258 97.4094 274.9 96.2189 273.219C95.0284 271.538 94.0713 270.207 93.3944 269.25C92.8108 268.363 92.3673 267.639 92.0639 267.126C91.7604 266.589 91.5036 266.052 91.2469 265.468C90.85 265.491 90.4299 265.515 89.9864 265.515C89.5429 265.515 89.1227 265.515 88.7025 265.561V263.53H100.701V265.071L98.6699 265.165C97.5494 265.188 96.8725 265.398 96.6624 265.795C96.429 266.192 96.4523 266.659 96.7091 267.219C96.9658 267.779 97.2693 268.34 97.6194 268.923C98.1797 269.857 98.9733 271.048 100 272.519C101.027 273.99 102.148 275.554 103.362 277.235L107.82 270.791C108.614 269.67 109.384 268.62 110.108 267.593C110.831 266.565 111.438 265.842 111.952 265.421C111.298 265.445 110.645 265.491 110.014 265.515C109.361 265.538 108.707 265.585 108.077 265.608V263.577H117.204V265.118C116.224 265.235 115.29 265.631 114.426 266.332C113.563 267.009 112.769 267.826 112.022 268.76C111.275 269.694 110.575 270.628 109.944 271.562L104.716 278.986C105.836 280.48 106.91 281.904 107.984 283.328C109.057 284.729 110.014 285.99 110.878 287.134C111.742 288.278 112.419 289.142 112.862 289.795C113.376 290.496 113.913 291.22 114.473 291.943C115.01 292.667 115.547 293.391 116.084 294.091C116.527 294.068 116.971 294.045 117.437 294.045C117.904 294.045 118.348 294.045 118.791 293.998V296.029H107.423V294.488C108.637 294.512 109.431 294.348 109.781 293.998C110.154 293.648 110.271 293.204 110.131 292.644C109.991 292.107 109.734 291.593 109.361 291.08C108.661 290.122 107.703 288.885 106.49 287.344C105.276 285.803 103.969 284.052 102.545 282.091C101.774 283.212 101.004 284.332 100.257 285.453C99.5102 286.574 98.7399 287.741 97.9696 288.908C97.4094 289.749 96.8258 290.613 96.2422 291.5C95.6353 292.387 94.9584 293.298 94.1881 294.185C94.8416 294.115 95.4719 294.068 96.1022 294.045C96.7324 294.021 97.386 293.975 98.0163 293.951V295.982H88.9359L88.8426 295.959Z" fill="#111111"/>
<path d="M138.305 265.028C137.161 265.051 136.368 265.331 135.924 265.822C135.481 266.312 135.224 266.989 135.177 267.806C135.131 268.646 135.107 269.604 135.107 270.724V290.429C135.107 291.27 135.107 291.993 135.107 292.577C135.107 293.184 135.061 293.674 134.991 294.095C135.551 294.071 136.111 294.025 136.648 294.001C137.208 293.978 137.768 293.931 138.305 293.908V295.939H127.871V294.398C129.038 294.328 129.855 294.071 130.275 293.581C130.695 293.091 130.952 292.437 130.999 291.596C131.046 290.756 131.069 289.775 131.069 288.701V268.67C131.069 268.063 131.069 267.456 131.116 266.895C131.139 266.312 131.186 265.798 131.209 265.331C130.649 265.355 130.089 265.401 129.552 265.425C128.991 265.448 128.431 265.495 127.894 265.518V263.487H138.329V265.028H138.305Z" fill="#111111"/>
<path d="M176.005 273.858C175.701 270.963 174.674 268.698 172.97 267.087C171.243 265.476 169.048 264.682 166.364 264.682C164.73 264.682 163.189 265.032 161.742 265.733C160.295 266.433 159.034 267.437 157.961 268.721C156.887 270.029 156.023 271.57 155.416 273.414C154.786 275.235 154.483 277.29 154.483 279.578C154.483 282.473 155.043 285.041 156.163 287.282C157.284 289.5 158.778 291.228 160.668 292.465C162.559 293.702 164.637 294.309 166.924 294.309C168.932 294.309 170.916 293.842 172.853 292.932C174.791 292.021 176.401 290.691 177.615 288.963L178.829 289.944C177.499 291.765 176.051 293.165 174.511 294.169C172.97 295.173 171.429 295.827 169.889 296.177C168.372 296.527 166.971 296.714 165.687 296.714C163.376 296.714 161.252 296.294 159.315 295.453C157.377 294.613 155.72 293.446 154.319 291.951C152.919 290.457 151.822 288.706 151.075 286.722C150.328 284.737 149.931 282.566 149.931 280.255C149.931 278.06 150.258 275.935 150.935 273.858C151.588 271.78 152.592 269.912 153.922 268.254C155.253 266.597 156.934 265.266 158.964 264.262C160.995 263.258 163.353 262.768 166.037 262.768C167.765 262.768 169.399 263.001 170.963 263.468C172.527 263.935 173.997 264.636 175.421 265.593L175.188 263.095H177.685V273.858H176.028H176.005Z" fill="#111111"/>
<path d="M186.882 295.966V294.425C187.816 294.425 188.516 294.168 189.006 293.678C189.497 293.187 189.917 292.51 190.244 291.646C190.57 290.783 190.944 289.779 191.387 288.635L200.935 262.626H202.055L212.396 289.008C212.653 289.662 212.909 290.479 213.236 291.506C213.54 292.534 213.68 293.397 213.61 294.098C214.123 294.074 214.66 294.028 215.174 294.004C215.71 293.981 216.224 293.934 216.761 293.911V295.942H206.14V294.401C207.307 294.378 208.077 294.098 208.451 293.607C208.824 293.117 208.964 292.534 208.871 291.856C208.778 291.179 208.614 290.549 208.404 290.012L206.77 285.646L194.725 285.926L193.091 290.876C192.881 291.623 192.671 292.207 192.508 292.627C192.344 293.047 192.134 293.537 191.924 294.074C192.554 294.051 193.161 294.004 193.768 293.981C194.375 293.958 194.959 293.911 195.542 293.888V295.919H186.882V295.966ZM195.426 283.965H206.14L202.849 275.117C202.498 274.16 202.172 273.202 201.798 272.268C201.425 271.335 201.098 270.377 200.748 269.42H200.654C200.351 270.284 200.024 271.148 199.697 272.012C199.371 272.875 199.044 273.763 198.694 274.65L195.402 283.965H195.426Z" fill="#111111"/>
<path d="M251.052 296.709L232.541 271.868C232.261 271.495 232.004 271.145 231.724 270.771C231.467 270.421 231.187 270.047 230.907 269.674H230.86L231.001 289.519V291.83C231.001 292.6 230.977 293.371 230.907 294.095C231.467 294.071 232.028 294.025 232.564 294.001C233.125 293.978 233.685 293.931 234.222 293.908V295.939H225.748V294.398C226.705 294.398 227.406 294.188 227.803 293.768C228.223 293.347 228.48 292.857 228.62 292.297C228.76 291.737 228.806 291.2 228.806 290.733L228.853 268.436V265.331C228.363 265.355 227.849 265.401 227.336 265.425C226.799 265.448 226.285 265.495 225.748 265.518V263.487H231.257L248.648 286.764C249.044 287.301 249.441 287.814 249.838 288.351C250.235 288.888 250.608 289.402 251.029 289.915H251.075L251.122 268.67C251.122 268.063 251.122 267.456 251.169 266.895C251.215 266.335 251.239 265.798 251.262 265.331C250.702 265.355 250.142 265.401 249.605 265.425C249.044 265.448 248.484 265.495 247.947 265.518V263.487H256.467V265.028C255.324 265.051 254.53 265.331 254.11 265.822C253.666 266.312 253.433 266.989 253.41 267.806C253.386 268.623 253.363 269.604 253.363 270.724L253.269 296.686H251.052V296.709Z" fill="#111111"/>
<path d="M312.745 273.858C312.442 270.963 311.415 268.698 309.711 267.087C307.984 265.476 305.789 264.682 303.105 264.682C301.471 264.682 299.93 265.032 298.483 265.733C297.036 266.433 295.775 267.437 294.702 268.721C293.628 270.029 292.764 271.57 292.157 273.414C291.527 275.235 291.223 277.29 291.223 279.578C291.223 282.473 291.784 285.041 292.904 287.282C294.025 289.5 295.519 291.228 297.409 292.465C299.3 293.702 301.378 294.309 303.665 294.309C305.673 294.309 307.657 293.842 309.594 292.932C311.532 292.021 313.142 290.691 314.356 288.963L315.57 289.944C314.239 291.765 312.792 293.165 311.252 294.169C309.711 295.173 308.17 295.827 306.63 296.177C305.112 296.527 303.712 296.714 302.428 296.714C300.117 296.714 297.993 296.294 296.055 295.453C294.118 294.613 292.461 293.446 291.06 291.951C289.66 290.457 288.562 288.706 287.815 286.722C287.068 284.737 286.672 282.566 286.672 280.255C286.672 278.06 286.998 275.935 287.675 273.858C288.329 271.78 289.333 269.912 290.663 268.254C291.994 266.597 293.674 265.266 295.705 264.262C297.736 263.258 300.094 262.768 302.778 262.768C304.505 262.768 306.139 263.001 307.703 263.468C309.267 263.935 310.738 264.636 312.162 265.593L311.928 263.095H314.426V273.858H312.769H312.745Z" fill="#111111"/>
<path d="M342.556 296.713C339.615 296.713 337.093 296.222 334.993 295.242C332.892 294.261 331.188 292.93 329.857 291.273C328.527 289.615 327.57 287.794 326.963 285.786C326.333 283.778 326.029 281.771 326.029 279.763C326.029 277.755 326.356 275.84 327.009 273.856C327.663 271.871 328.667 270.027 329.997 268.369C331.351 266.712 333.032 265.358 335.039 264.33C337.07 263.303 339.428 262.79 342.159 262.79C344.89 262.79 347.458 263.303 349.535 264.33C351.613 265.358 353.317 266.712 354.647 268.393C356.001 270.074 357.005 271.918 357.658 273.879C358.335 275.864 358.662 277.825 358.662 279.763C358.662 281.7 358.335 283.638 357.682 285.623C357.028 287.607 356.024 289.452 354.694 291.133C353.34 292.814 351.683 294.168 349.652 295.195C347.644 296.222 345.263 296.736 342.509 296.736L342.556 296.713ZM342.649 294.798C344.563 294.798 346.244 294.378 347.644 293.561C349.045 292.744 350.259 291.646 351.193 290.269C352.126 288.891 352.85 287.374 353.317 285.669C353.807 283.988 354.04 282.284 354.04 280.603C354.04 278.689 353.784 276.774 353.247 274.907C352.71 273.039 351.963 271.311 350.936 269.77C349.909 268.229 348.648 266.969 347.154 266.035C345.66 265.101 343.956 264.611 342.042 264.611C340.128 264.611 338.447 265.031 337 265.871C335.553 266.712 334.386 267.809 333.429 269.187C332.472 270.564 331.771 272.082 331.304 273.786C330.814 275.467 330.581 277.171 330.581 278.899C330.581 280.627 330.814 282.378 331.304 284.222C331.795 286.066 332.518 287.817 333.499 289.405C334.479 291.016 335.74 292.3 337.257 293.304C338.774 294.308 340.572 294.798 342.626 294.798H342.649Z" fill="#111111"/>
<path d="M370.239 295.961V294.42C371.406 294.35 372.223 294.093 372.643 293.603C373.063 293.112 373.32 292.459 373.367 291.618C373.413 290.778 373.437 289.797 373.437 288.723V268.692C373.437 268.085 373.437 267.477 373.483 266.917C373.507 266.333 373.553 265.82 373.577 265.353C373.016 265.376 372.456 265.423 371.919 265.446C371.359 265.47 370.799 265.516 370.262 265.54V263.509H391.761L391.994 271.633H390.453C390.453 269.812 390.173 268.435 389.566 267.478C388.983 266.544 388.213 265.913 387.255 265.586C386.298 265.26 385.225 265.119 384.058 265.143L380.673 265.236C379.529 265.26 378.735 265.54 378.315 266.053C377.872 266.567 377.638 267.244 377.568 268.061C377.498 268.902 377.475 269.859 377.475 270.933V278.917L385.551 278.964L385.225 274.925H387.279V284.707H385.785C385.785 283.307 385.598 282.326 385.201 281.742C384.805 281.159 384.221 280.809 383.427 280.668C382.61 280.552 381.583 280.505 380.276 280.575L377.498 280.715V290.451C377.498 291.291 377.498 292.015 377.498 292.599C377.498 293.206 377.452 293.696 377.382 294.116C377.895 294.093 378.432 294.07 378.945 294.046C379.482 294.046 379.996 294 380.533 293.976C381.046 293.953 381.583 293.929 382.12 293.929V295.961H370.309H370.239Z" fill="#111111"/>
<path d="M402.593 295.961V294.42C403.76 294.35 404.577 294.093 404.997 293.603C405.417 293.112 405.674 292.459 405.721 291.618C405.768 290.778 405.791 289.797 405.791 288.723V268.692C405.791 268.085 405.791 267.477 405.838 266.917C405.861 266.333 405.908 265.82 405.931 265.353C405.371 265.376 404.811 265.423 404.274 265.446C403.713 265.47 403.153 265.516 402.616 265.54V263.509H424.115L424.348 271.633H422.808C422.808 269.812 422.528 268.435 421.921 267.478C421.337 266.544 420.567 265.913 419.61 265.586C418.653 265.26 417.579 265.119 416.412 265.143L413.027 265.236C411.883 265.26 411.09 265.54 410.67 266.053C410.226 266.567 409.993 267.244 409.923 268.061C409.853 268.902 409.829 269.859 409.829 270.933V278.917L417.906 278.964L417.579 274.925H419.633V284.707H418.139C418.139 283.307 417.953 282.326 417.556 281.742C417.159 281.159 416.575 280.809 415.782 280.668C414.965 280.552 413.938 280.505 412.63 280.575L409.853 280.715V290.451C409.853 291.291 409.853 292.015 409.853 292.599C409.853 293.206 409.806 293.696 409.736 294.116C410.249 294.093 410.786 294.07 411.3 294.046C411.837 294.046 412.35 294 412.887 293.976C413.401 293.953 413.938 293.929 414.474 293.929V295.961H402.663H402.593Z" fill="#111111"/>
<path d="M451.075 283.96C451.075 282.606 450.888 281.626 450.514 281.042C450.141 280.458 449.557 280.108 448.764 279.968C447.947 279.851 446.896 279.805 445.566 279.875L442.181 280.015V290.638C442.181 291.478 442.181 292.178 442.181 292.762C442.181 293.346 442.134 293.836 442.064 294.256L450.911 294.116C452.265 294.093 453.456 293.859 454.436 293.439C455.416 293.019 456.21 292.295 456.747 291.245C457.284 290.194 457.587 288.746 457.587 286.925H459.151L458.871 295.961H434.945V294.42C436.112 294.35 436.929 294.093 437.349 293.603C437.769 293.112 438.026 292.459 438.073 291.618C438.119 290.778 438.143 289.797 438.143 288.723V268.692C438.143 268.085 438.143 267.477 438.189 266.917C438.236 266.357 438.259 265.82 438.283 265.353C437.723 265.376 437.162 265.423 436.626 265.446C436.065 265.47 435.505 265.516 434.968 265.54V263.509H457.26L457.494 271.633H455.977C455.977 269.812 455.696 268.435 455.136 267.478C454.576 266.544 453.829 265.913 452.895 265.586C451.962 265.26 450.888 265.119 449.721 265.143L445.729 265.236C444.585 265.26 443.768 265.493 443.278 265.89C442.788 266.287 442.485 266.894 442.368 267.664C442.274 268.458 442.204 269.485 442.204 270.746V278.17L450.911 278.217L450.584 274.225H452.639V283.96H451.098H451.075Z" fill="#111111"/>
<path d="M486.861 283.96C486.861 282.606 486.674 281.626 486.3 281.042C485.927 280.458 485.343 280.108 484.55 279.968C483.733 279.851 482.682 279.805 481.352 279.875L477.967 280.015V290.638C477.967 291.478 477.967 292.178 477.967 292.762C477.967 293.346 477.92 293.836 477.85 294.256L486.697 294.116C488.051 294.093 489.241 293.859 490.222 293.439C491.202 293.019 491.996 292.295 492.533 291.245C493.07 290.194 493.373 288.746 493.373 286.925H494.937L494.657 295.961H470.731V294.42C471.898 294.35 472.715 294.093 473.135 293.603C473.555 293.112 473.812 292.459 473.859 291.618C473.905 290.778 473.929 289.797 473.929 288.723V268.692C473.929 268.085 473.929 267.477 473.975 266.917C474.022 266.357 474.045 265.82 474.069 265.353C473.508 265.376 472.948 265.423 472.411 265.446C471.851 265.47 471.291 265.516 470.754 265.54V263.509H493.046L493.28 271.633H491.762C491.762 269.812 491.482 268.435 490.922 267.478C490.362 266.544 489.615 265.913 488.681 265.586C487.748 265.26 486.674 265.119 485.507 265.143L481.515 265.236C480.371 265.26 479.554 265.493 479.064 265.89C478.574 266.287 478.27 266.894 478.154 267.664C478.06 268.458 477.99 269.485 477.99 270.746V278.17L486.697 278.217L486.37 274.225H488.424V283.96H486.884H486.861Z" fill="#111111"/>
</svg>
